<svg xmlns="http://www.w3.org/2000/svg" xmlns:xlink="http://www.w3.org/1999/xlink" width="692" zoomAndPan="magnify" viewBox="0 0 519 225" height="300" preserveAspectRatio="xMidYMid meet" version="1.0"><defs><g/><clipPath id="803b20a9c4"><path d="M 10.082031 52 L 45 52 L 45 156 L 10.082031 156 Z M 10.082031 52 " clip-rule="nonzero"/></clipPath><clipPath id="132ff68cf0"><path d="M 55 29.429688 L 113 29.429688 L 113 190 L 55 190 Z M 55 29.429688 " clip-rule="nonzero"/></clipPath><clipPath id="28b6fe2f86"><path d="M 474 52 L 508.855469 52 L 508.855469 156 L 474 156 Z M 474 52 " clip-rule="nonzero"/></clipPath><clipPath id="5f91c6d88c"><path d="M 405 29.429688 L 464 29.429688 L 464 190 L 405 190 Z M 405 29.429688 " clip-rule="nonzero"/></clipPath></defs><g clip-path="url(#803b20a9c4)"><path fill="#004aad" d="M 21.242188 155.164062 L 44.140625 155.164062 L 44.140625 52.089844 L 21.242188 52.089844 C 9.792969 52.089844 9.792969 59.578125 9.792969 63.542969 L 9.792969 143.710938 C 9.792969 147.675781 9.792969 155.164062 21.242188 155.164062 Z M 21.242188 155.164062 " fill-opacity="1" fill-rule="nonzero"/></g><g clip-path="url(#132ff68cf0)"><path fill="#004aad" d="M 55.59375 57.816406 L 55.59375 178.070312 C 55.59375 182.035156 55.59375 189.523438 67.042969 189.523438 L 102.308594 189.523438 C 112.84375 189.523438 112.84375 182.035156 112.84375 178.070312 L 112.84375 40.636719 C 112.84375 36.671875 112.84375 29.183594 102.308594 29.183594 L 67.042969 29.183594 C 55.59375 29.183594 55.59375 36.671875 55.59375 40.636719 Z M 55.59375 57.816406 " fill-opacity="1" fill-rule="nonzero"/></g><g clip-path="url(#28b6fe2f86)"><path fill="#004aad" d="M 474.503906 155.164062 L 497.402344 155.164062 C 508.855469 155.164062 508.855469 147.675781 508.855469 143.710938 L 508.855469 63.542969 C 508.855469 59.578125 508.855469 52.089844 497.402344 52.089844 L 474.503906 52.089844 Z M 474.503906 155.164062 " fill-opacity="1" fill-rule="nonzero"/></g><g clip-path="url(#5f91c6d88c)"><path fill="#004aad" d="M 405.804688 129.394531 L 405.804688 178.070312 C 405.804688 182.035156 405.804688 189.523438 417.253906 189.523438 L 451.605469 189.523438 C 463.054688 189.523438 463.054688 182.035156 463.054688 178.070312 L 463.054688 40.636719 C 463.054688 36.671875 463.054688 29.183594 451.605469 29.183594 L 417.253906 29.183594 C 405.804688 29.183594 405.804688 36.671875 405.804688 40.636719 Z M 405.804688 129.394531 " fill-opacity="1" fill-rule="nonzero"/></g><g fill="#ffffff" fill-opacity="1"><g transform="translate(136.412144, 134.776778)"><g><path d="M 35.671875 -24.15625 L 47.25 -24.15625 L 47.25 -4.96875 C 44.601562 -3.070312 41.5625 -1.613281 38.125 -0.59375 C 34.6875 0.414062 31.242188 0.921875 27.796875 0.921875 C 22.941406 0.921875 18.570312 -0.101562 14.6875 -2.15625 C 10.8125 -4.207031 7.769531 -7.0625 5.5625 -10.71875 C 3.351562 -14.382812 2.25 -18.535156 2.25 -23.171875 C 2.25 -27.796875 3.351562 -31.941406 5.5625 -35.609375 C 7.769531 -39.273438 10.835938 -42.128906 14.765625 -44.171875 C 18.691406 -46.222656 23.125 -47.25 28.0625 -47.25 C 32.382812 -47.25 36.265625 -46.519531 39.703125 -45.0625 C 43.148438 -43.613281 46.019531 -41.519531 48.3125 -38.78125 L 39.984375 -31.234375 C 36.847656 -34.679688 33.09375 -36.40625 28.71875 -36.40625 C 24.75 -36.40625 21.550781 -35.203125 19.125 -32.796875 C 16.695312 -30.390625 15.484375 -27.179688 15.484375 -23.171875 C 15.484375 -20.609375 16.035156 -18.320312 17.140625 -16.3125 C 18.242188 -14.300781 19.785156 -12.734375 21.765625 -11.609375 C 23.753906 -10.484375 26.03125 -9.921875 28.59375 -9.921875 C 31.101562 -9.921875 33.460938 -10.429688 35.671875 -11.453125 Z M 35.671875 -24.15625 "/></g></g></g><g fill="#ffffff" fill-opacity="1"><g transform="translate(187.366033, 134.776778)"><g><path d="M 29.453125 -16.609375 L 29.453125 0 L 16.34375 0 L 16.34375 -16.8125 L -1.328125 -46.328125 L 12.515625 -46.328125 L 23.5 -27.9375 L 34.484375 -46.328125 L 47.1875 -46.328125 Z M 29.453125 -16.609375 "/></g></g></g><g fill="#ffffff" fill-opacity="1"><g transform="translate(233.224531, 134.776778)"><g><path d="M 46.46875 0 L 46.328125 -24.5625 L 34.421875 -4.5625 L 28.59375 -4.5625 L 16.75 -23.890625 L 16.75 0 L 4.640625 0 L 4.640625 -46.328125 L 15.421875 -46.328125 L 31.703125 -19.59375 L 47.59375 -46.328125 L 58.375 -46.328125 L 58.515625 0 Z M 46.46875 0 "/></g></g></g><g fill="#ffffff" fill-opacity="1"><g transform="translate(296.354407, 134.776778)"><g><path d="M 4.640625 -46.328125 L 17.734375 -46.328125 L 17.734375 -10.390625 L 39.84375 -10.390625 L 39.84375 0 L 4.640625 0 Z M 4.640625 -46.328125 "/></g></g></g><g fill="#ffffff" fill-opacity="1"><g transform="translate(336.720475, 134.776778)"><g><path d="M 29.453125 -16.609375 L 29.453125 0 L 16.34375 0 L 16.34375 -16.8125 L -1.328125 -46.328125 L 12.515625 -46.328125 L 23.5 -27.9375 L 34.484375 -46.328125 L 47.1875 -46.328125 Z M 29.453125 -16.609375 "/></g></g></g></svg>